<svg width="20" height="20" viewBox="0 0 20 20" fill="none" xmlns="http://www.w3.org/2000/svg">
<g clip-path="url(#clip0_12_388)">
<rect width="20" height="20" fill="#0D1321"/>
<path d="M9.99992 14.1667C12.3011 14.1667 14.1666 12.3012 14.1666 10C14.1666 7.69885 12.3011 5.83337 9.99992 5.83337C7.69873 5.83337 5.83325 7.69885 5.83325 10C5.83325 12.3012 7.69873 14.1667 9.99992 14.1667Z" stroke="#F9E832" stroke-width="2" stroke-linecap="round" stroke-linejoin="round"/>
<path d="M10 0.833374V2.50004" stroke="#F9E832" stroke-width="2" stroke-linecap="round" stroke-linejoin="round"/>
<path d="M10 17.5V19.1667" stroke="#F9E832" stroke-width="2" stroke-linecap="round" stroke-linejoin="round"/>
<path d="M3.5166 3.51672L4.69993 4.70006" stroke="#F9E832" stroke-width="2" stroke-linecap="round" stroke-linejoin="round"/>
<path d="M15.3 15.3L16.4834 16.4834" stroke="#F9E832" stroke-width="2" stroke-linecap="round" stroke-linejoin="round"/>
<path d="M0.833252 10H2.49992" stroke="#F9E832" stroke-width="2" stroke-linecap="round" stroke-linejoin="round"/>
<path d="M17.5 10H19.1667" stroke="#F9E832" stroke-width="2" stroke-linecap="round" stroke-linejoin="round"/>
<path d="M3.5166 16.4834L4.69993 15.3" stroke="#F9E832" stroke-width="2" stroke-linecap="round" stroke-linejoin="round"/>
<path d="M15.3 4.70006L16.4834 3.51672" stroke="#F9E832" stroke-width="2" stroke-linecap="round" stroke-linejoin="round"/>
</g>
<defs>
<clipPath id="clip0_12_388">
<rect width="20" height="20" fill="white"/>
</clipPath>
</defs>
</svg>
